<?xml version="1.0" encoding="UTF-8"?>
<svg id="_Слой_1" data-name="Слой 1" xmlns="http://www.w3.org/2000/svg" viewBox="0 0 960.25 615.27">
  <defs>
    <style>
      .cls-1 {
        stroke-width: 17px;
      }

      .cls-1, .cls-2, .cls-3, .cls-4, .cls-5 {
        fill: #fff;
      }

      .cls-1, .cls-3, .cls-4, .cls-6, .cls-5, .cls-7 {
        stroke: #000;
      }

      .cls-1, .cls-3, .cls-4, .cls-7 {
        stroke-linecap: round;
        stroke-linejoin: round;
      }

      .cls-8 {
        stroke: #fff;
        stroke-width: 4px;
      }

      .cls-8, .cls-6, .cls-5 {
        stroke-miterlimit: 10;
      }

      .cls-3, .cls-6 {
        stroke-width: 29px;
      }

      .cls-4, .cls-5 {
        stroke-width: 19px;
      }

      .cls-6, .cls-7 {
        fill: none;
      }

      .cls-7 {
        stroke-width: 14px;
      }
    </style>
  </defs>
  <path d="M825.9,495.27H159.9V90.48c0-22.21,18-40.21,40.21-40.21H785.69c22.21,0,40.21,18,40.21,40.21V495.27Z"/>
  <rect class="cls-2" x="200.9" y="113.27" width="584" height="354"/>
  <path d="M159.9,501.27L5.27,595.03c-9.44,5.72-5.38,20.23,5.66,20.23H949.32c10.57,0,14.96-13.52,6.41-19.73l-129.82-94.27H159.9Z"/>
  <line class="cls-8" x1="5.27" y1="595.03" x2="955.73" y2="595.03"/>
  <polygon class="cls-2" points="159.9 525.48 825.9 525.48 869.9 558.27 103.9 558.27 159.9 525.48"/>
  <circle cx="427.95" cy="345.56" r="84.08"/>
  <circle class="cls-2" cx="427.95" cy="345.56" r="48.06"/>
  <polygon points="452.42 269.59 405.25 269.59 411.84 235.86 445.57 235.86 452.42 269.59"/>
  <polygon points="503.31 311.63 470.83 277.42 499.83 258.97 523.06 283.43 503.31 311.63"/>
  <polygon points="502.13 371.9 502.13 324.72 535.87 331.32 535.87 365.05 502.13 371.9"/>
  <polygon points="463.1 418.28 496.46 384.92 515.65 413.44 491.8 437.29 463.1 418.28"/>
  <polygon points="404.24 421.5 451.4 422.72 443.94 456.27 410.22 455.4 404.24 421.5"/>
  <polygon points="352.58 311.81 385.07 277.6 356.07 259.15 332.83 283.61 352.58 311.81"/>
  <polygon points="353.76 372.08 353.76 324.9 320.03 331.5 320.03 365.23 353.76 372.08"/>
  <polygon points="392.79 418.46 359.43 385.1 340.24 413.62 364.1 437.47 392.79 418.46"/>
  <circle cx="585.54" cy="253.81" r="52.8"/>
  <circle class="cls-2" cx="585.54" cy="253.81" r="30.18"/>
  <polygon points="600.91 206.11 571.29 206.11 575.43 184.93 596.61 184.93 600.91 206.11"/>
  <polygon points="632.87 232.5 612.47 211.03 630.68 199.44 645.27 214.8 632.87 232.5"/>
  <polygon points="632.13 270.35 632.13 240.73 653.31 244.87 653.31 266.05 632.13 270.35"/>
  <polygon points="607.62 299.48 628.57 278.53 640.62 296.44 625.64 311.41 607.62 299.48"/>
  <polygon points="570.66 301.5 600.27 302.26 595.59 323.33 574.41 322.78 570.66 301.5"/>
  <polygon points="538.22 232.62 558.62 211.14 540.41 199.55 525.82 214.91 538.22 232.62"/>
  <polygon points="538.96 270.47 538.96 240.84 517.78 244.98 517.78 266.17 538.96 270.47"/>
  <polygon points="563.47 299.59 542.52 278.64 530.47 296.55 545.45 311.53 563.47 299.59"/>
  <circle cx="470.77" cy="185.31" r="36.84"/>
  <circle class="cls-2" cx="470.77" cy="185.31" r="21.06"/>
  <polygon points="481.49 152.03 460.82 152.03 463.71 137.25 478.49 137.25 481.49 152.03"/>
  <polygon points="503.79 170.44 489.55 155.45 502.26 147.37 512.44 158.09 503.79 170.44"/>
  <polygon points="503.27 196.85 503.27 176.18 518.05 179.07 518.05 193.85 503.27 196.85"/>
  <polygon points="486.17 217.17 500.78 202.55 509.19 215.05 498.74 225.5 486.17 217.17"/>
  <polygon points="460.38 218.58 481.04 219.11 477.77 233.81 463 233.43 460.38 218.58"/>
  <polygon points="437.75 170.52 451.98 155.53 439.27 147.45 429.1 158.17 437.75 170.52"/>
  <polygon points="438.26 196.93 438.26 176.26 423.49 179.15 423.49 193.93 438.26 196.93"/>
  <polygon points="455.37 217.25 440.75 202.63 432.34 215.12 442.79 225.57 455.37 217.25"/>
  <path class="cls-1" d="M780.88,356.29s-20.12,12.59-21.05,33.42,9.11,33.81,21.05,50.21c11.93,16.39,17.58,27.13,17.58,27.13,0,0,12.43-21.47,14.13-26.56l4.52,13s14.69-23.73,20.34-31.08c5.65-7.35,11.37-49.73-10.98-66.11"/>
  <polyline class="cls-4" points="780.39 328.6 770.78 356.29 834.7 356.29 825.59 330.3"/>
  <polyline class="cls-3" points="857.05 248.69 907.53 273.79 922.22 382.85 841.48 313.53"/>
  <polyline class="cls-3" points="744.08 248.45 693.6 273.55 678.91 382.61 759.65 313.29"/>
  <path class="cls-5" d="M862.89,178.3c0,66.25-14.47,123.28-35.26,148.9-7.51,9.26-42.79,8.6-50.66-1.77-20.04-26.41-33.87-82.36-33.87-147.12,0-90.19,59.9-163.3,59.9-163.3,0,0,59.9,73.11,59.9,163.3Z"/>
  <path class="cls-6" d="M759.84,92.62c27.21,13.69,54.43,13.69,81.64,0"/>
  <path class="cls-7" d="M786.6,379.46c-2.26,3.39-15.26,13.38,0,36.07"/>
  <circle cx="804.4" cy="169.54" r="35.6"/>
</svg>